<svg width="40" height="40" viewBox="0 0 40 40" fill="none" xmlns="http://www.w3.org/2000/svg">
<rect width="40" height="40" rx="20" fill="#FFBF00"/>
<path d="M12.0489 13.8019L15.8539 17.1499L19.2439 12.9759C19.3388 12.8592 19.4588 12.7654 19.595 12.7015C19.7312 12.6377 19.8801 12.6054 20.0305 12.607C20.1809 12.6086 20.329 12.6442 20.4638 12.711C20.5986 12.7778 20.7165 12.8742 20.8089 12.9929L24.0439 17.1489L27.9719 13.7529C28.1261 13.6198 28.3174 13.537 28.52 13.5156C28.7226 13.4941 28.9269 13.5351 29.1056 13.633C29.2843 13.7309 29.4288 13.881 29.5198 14.0632C29.6108 14.2455 29.644 14.4512 29.6149 14.6529L28.1149 24.9999H11.9219L10.3989 14.6999C10.3686 14.4971 10.4014 14.29 10.4928 14.1064C10.5842 13.9229 10.7298 13.772 10.9099 13.674C11.09 13.576 11.2958 13.5357 11.4995 13.5586C11.7033 13.5814 11.895 13.6664 12.0489 13.8019ZM11.9999 25.9999H27.9999V26.9999C27.9999 27.2651 27.8945 27.5194 27.707 27.707C27.5195 27.8945 27.2651 27.9999 26.9999 27.9999H12.9999C12.7347 27.9999 12.4803 27.8945 12.2928 27.707C12.1052 27.5194 11.9999 27.2651 11.9999 26.9999V25.9999Z" fill="black"/>
</svg>
