<svg width="40" height="40" viewBox="0 0 40 40" fill="none" xmlns="http://www.w3.org/2000/svg">
<g clip-path="url(#clip0_65_37)">
<path d="M40 20C40 25.3043 37.8929 30.3914 34.1421 34.1421C30.3914 37.8929 25.3043 40 20 40C14.6957 40 9.60859 37.8929 5.85786 34.1421C2.10714 30.3914 0 25.3043 0 20C0 14.6957 2.10714 9.60859 5.85786 5.85786C9.60859 2.10714 14.6957 0 20 0C25.3043 0 30.3914 2.10714 34.1421 5.85786C37.8929 9.60859 40 14.6957 40 20V20ZM16.975 12.7325C16.7881 12.5994 16.5682 12.5204 16.3393 12.504C16.1104 12.4876 15.8815 12.5345 15.6775 12.6396C15.4736 12.7447 15.3024 12.9038 15.1829 13.0997C15.0634 13.2956 15.0001 13.5206 15 13.75V26.25C15.0001 26.4794 15.0634 26.7044 15.1829 26.9003C15.3024 27.0962 15.4736 27.2553 15.6775 27.3604C15.8815 27.4655 16.1104 27.5124 16.3393 27.496C16.5682 27.4796 16.7881 27.4006 16.975 27.2675L25.725 21.0175C25.887 20.9019 26.0191 20.7492 26.1102 20.5722C26.2014 20.3952 26.2489 20.1991 26.2489 20C26.2489 19.8009 26.2014 19.6047 26.1102 19.4278C26.0191 19.2508 25.887 19.0981 25.725 18.9825L16.975 12.7325V12.7325Z" fill="#FEF5EF"/>
</g>
<defs>
<clipPath id="clip0_65_37">
<rect width="40" height="40" fill="white"/>
</clipPath>
</defs>
</svg>
