<svg width="40" height="40" viewBox="0 0 40 40" fill="none" xmlns="http://www.w3.org/2000/svg">
<g clip-path="url(#clip0_65_41)">
<path d="M40 20C40 25.3043 37.8929 30.3914 34.1421 34.1421C30.3914 37.8929 25.3043 40 20 40C14.6957 40 9.60859 37.8929 5.85786 34.1421C2.10714 30.3914 0 25.3043 0 20C0 14.6957 2.10714 9.60859 5.85786 5.85786C9.60859 2.10714 14.6957 0 20 0C25.3043 0 30.3914 2.10714 34.1421 5.85786C37.8929 9.60859 40 14.6957 40 20V20ZM21.25 11.25C21.25 10.9185 21.1183 10.6005 20.8839 10.3661C20.6495 10.1317 20.3315 10 20 10C19.6685 10 19.3505 10.1317 19.1161 10.3661C18.8817 10.6005 18.75 10.9185 18.75 11.25V18.75H11.25C10.9185 18.75 10.6005 18.8817 10.3661 19.1161C10.1317 19.3505 10 19.6685 10 20C10 20.3315 10.1317 20.6495 10.3661 20.8839C10.6005 21.1183 10.9185 21.25 11.25 21.25H18.75V28.75C18.75 29.0815 18.8817 29.3995 19.1161 29.6339C19.3505 29.8683 19.6685 30 20 30C20.3315 30 20.6495 29.8683 20.8839 29.6339C21.1183 29.3995 21.25 29.0815 21.25 28.75V21.25H28.75C29.0815 21.25 29.3995 21.1183 29.6339 20.8839C29.8683 20.6495 30 20.3315 30 20C30 19.6685 29.8683 19.3505 29.6339 19.1161C29.3995 18.8817 29.0815 18.75 28.75 18.75H21.25V11.25Z" fill="#FEF5EF"/>
</g>
<defs>
<clipPath id="clip0_65_41">
<rect width="40" height="40" fill="white"/>
</clipPath>
</defs>
</svg>
