<svg width="40" height="40" viewBox="0 0 40 40" fill="none" xmlns="http://www.w3.org/2000/svg">
<path fill-rule="evenodd" clip-rule="evenodd" d="M10.6962 8.75C7.31922 8.75 5.39155 12.6053 7.41776 15.307C8.28256 16.46 8.75004 17.8625 8.75004 19.3038V30C8.75004 34.3723 12.2944 37.9167 16.6667 37.9167H23.3334C27.7056 37.9167 31.25 34.3723 31.25 30V19.3038C31.25 17.8625 31.7175 16.46 32.5823 15.307C34.6085 12.6053 32.6809 8.75 29.3038 8.75H10.6962ZM23.333 17.0833C24.0234 17.0833 24.583 17.643 24.583 18.3333V28.3333C24.583 29.0237 24.0234 29.5833 23.333 29.5833C22.6427 29.5833 22.083 29.0237 22.083 28.3333V18.3333C22.083 17.643 22.6427 17.0833 23.333 17.0833ZM17.9164 18.3333C17.9164 17.643 17.3567 17.0833 16.6664 17.0833C15.976 17.0833 15.4164 17.643 15.4164 18.3333V28.3333C15.4164 29.0237 15.976 29.5833 16.6664 29.5833C17.3567 29.5833 17.9164 29.0237 17.9164 28.3333V18.3333Z" fill="white"/>
<path d="M26.6666 10L25.7597 7.27924C25.306 5.9181 24.0322 5 22.5974 5H17.4025C15.9677 5 14.6939 5.9181 14.2402 7.27924L13.3333 10" stroke="white" stroke-width="2.5" stroke-linecap="round"/>
</svg>
