<svg width="336" height="337" viewBox="0 0 336 337" fill="none" xmlns="http://www.w3.org/2000/svg">
<circle cx="168.161" cy="166.64" r="163.725" fill="#FEF5EF"/>
<g filter="url(#filter0_d_22_30)">
<path d="M169.56 170.153C167.268 170.916 164.975 169.771 164.211 167.862C163.447 165.572 164.593 163.281 166.504 162.518C168.796 161.754 171.088 162.899 171.852 164.808C172.616 167.099 171.852 169.389 169.56 170.153ZM192.482 230.469C156.952 243.831 117.22 226.27 103.849 190.767C90.4774 155.264 108.051 115.562 143.581 102.201C179.111 88.8395 218.843 106.4 232.215 141.903C245.586 177.406 228.012 217.108 192.482 230.469ZM148.548 114.799C119.895 125.488 105.759 157.555 116.456 186.186C127.153 214.818 159.245 228.942 187.898 218.253C216.551 207.564 230.686 175.497 219.989 146.866C208.91 118.234 176.819 103.728 148.548 114.799ZM143.199 101.056C106.905 114.799 88.9492 155.264 102.703 191.531C116.456 227.415 156.952 245.358 192.864 231.615C229.158 217.872 247.496 177.406 233.743 141.521C219.989 105.255 179.111 87.3125 143.199 101.056ZM15.5974 224.361C16.3614 226.27 17.1255 228.561 18.2716 230.469L18.6537 227.797C18.2717 226.27 17.5076 225.125 17.1255 223.598C-14.5839 140.376 27.4406 46.8468 110.726 15.1614C194.01 -16.1422 287.228 25.8505 318.938 109.072C350.647 192.294 308.623 285.823 225.338 317.509C147.019 347.285 59.15 311.783 22.8561 237.723L22.4741 240.013C59.9141 313.31 147.401 348.431 226.102 318.654C310.151 286.587 352.557 192.294 320.466 108.309C288.375 24.3235 194.01 -18.051 109.961 14.0161C26.2945 46.0833 -16.112 140.376 15.5974 224.361ZM17.1255 235.05C15.5974 231.615 14.0692 228.561 12.9231 225.125C-19.5504 139.613 23.2382 43.7928 108.815 11.3439C194.775 -21.105 290.285 22.033 323.14 107.545C355.614 193.058 312.825 288.496 227.248 321.326C148.166 351.485 60.6782 317.127 22.0921 244.594L17.1255 235.05ZM46.1606 120.143C58.768 86.549 85.5108 58.2993 121.805 44.5563L121.423 44.1745C85.1288 57.9176 58.3859 86.549 45.3965 120.143H46.1606ZM279.206 166.335C279.206 211 252.081 252.993 207.764 269.79L208.146 270.172C252.081 253.375 279.588 211.382 279.588 166.335C279.588 152.974 277.295 139.612 272.329 126.633C255.519 82.3497 213.112 54.8636 168.032 54.8636C154.66 54.8636 141.289 57.1541 128.299 62.1169C83.9827 79.2957 56.4758 121.288 56.4758 166.335C56.4758 179.696 58.768 193.058 63.7345 206.037L64.1165 205.656C59.5321 192.676 57.2398 179.315 57.2398 166.335C57.2398 121.67 84.3647 79.6775 128.681 62.8804C141.671 57.9176 155.042 55.6271 168.032 55.6271C212.73 55.6271 254.755 82.7315 271.565 127.015C276.531 139.994 279.206 153.356 279.206 166.335ZM134.412 77.7687C96.59 92.2753 73.2855 128.16 73.2855 166.335C73.2855 177.406 75.1957 188.858 79.3982 199.929C93.9157 237.723 129.828 261.01 168.032 261.01C179.111 261.01 190.572 259.101 201.651 254.902C239.473 240.395 262.778 204.51 262.778 166.335C262.778 155.264 260.868 143.812 256.665 132.741L256.283 133.123C260.486 144.194 262.396 155.646 262.396 166.717C262.396 204.51 239.091 240.395 201.651 254.902C190.572 259.101 179.111 261.01 168.032 261.01C130.21 261.01 94.2978 237.723 79.7802 200.311C75.5778 189.24 73.6676 177.788 73.6676 166.717C73.6676 128.923 96.9721 93.0388 134.412 78.5322V77.7687ZM25.5304 193.821C23.6202 184.659 22.8561 175.497 22.8561 166.335C22.8561 154.119 24.3843 142.285 27.4406 130.832L28.9688 125.869C41.1941 83.495 72.5215 47.6103 116.838 30.8132C133.648 24.3234 150.84 21.2694 168.032 21.2694C226.484 21.2694 281.498 56.7724 303.656 114.799C310.151 131.596 313.207 149.156 313.207 166.335C313.207 224.743 277.677 279.715 219.607 301.857L219.989 302.239C278.059 280.097 313.971 225.125 313.971 166.335C313.971 149.156 310.915 131.596 304.42 114.417C282.262 56.3906 226.866 20.8877 168.032 20.8877C150.84 20.8877 133.266 23.9417 116.074 30.4315C71.7574 47.2285 40.43 83.495 27.8227 125.869L26.6765 130.832C23.6202 142.285 22.0921 154.501 22.0921 166.335C22.0921 175.879 23.2382 185.804 25.1484 195.348L25.5304 193.821ZM46.1606 212.909C40.43 197.639 37.7557 181.987 37.7557 166.335C37.7557 166.335 37.7557 166.335 37.7557 165.953L37.3737 168.626C37.7557 183.132 40.43 198.021 45.7786 212.527C65.6447 265.209 115.31 297.276 168.032 297.276C183.695 297.276 199.359 294.604 214.641 288.496C266.98 269.026 299.072 219.017 299.072 166.335C299.072 150.683 296.397 135.031 290.285 119.761L289.903 120.143C295.633 135.413 298.308 151.065 298.308 166.717C298.308 219.399 266.216 268.645 214.259 288.496C198.977 294.222 183.313 296.894 167.65 296.894C115.692 296.894 66.0267 264.827 46.1606 212.909ZM28.9688 209.091C29.7329 212.145 30.879 215.199 32.0251 218.253L32.4072 217.872C31.261 214.436 30.1149 211 28.9688 207.946V209.091Z" fill="#1E2948"/>
</g>
<defs>
<filter id="filter0_d_22_30" x="0.165097" y="0.542175" width="335.733" height="335.517" filterUnits="userSpaceOnUse" color-interpolation-filters="sRGB">
<feFlood flood-opacity="0" result="BackgroundImageFix"/>
<feColorMatrix in="SourceAlpha" type="matrix" values="0 0 0 0 0 0 0 0 0 0 0 0 0 0 0 0 0 0 127 0" result="hardAlpha"/>
<feOffset dy="1.89826"/>
<feGaussianBlur stdDeviation="0.949129"/>
<feComposite in2="hardAlpha" operator="out"/>
<feColorMatrix type="matrix" values="0 0 0 0 0 0 0 0 0 0 0 0 0 0 0 0 0 0 0.25 0"/>
<feBlend mode="normal" in2="BackgroundImageFix" result="effect1_dropShadow_22_30"/>
<feBlend mode="normal" in="SourceGraphic" in2="effect1_dropShadow_22_30" result="shape"/>
</filter>
</defs>
</svg>
