<svg width="40" height="40" viewBox="0 0 40 40" fill="none" xmlns="http://www.w3.org/2000/svg">
<path d="M31.3834 15.2833C31.228 15.1279 31.0435 15.0046 30.8404 14.9205C30.6374 14.8364 30.4198 14.7932 30.2 14.7932C29.9803 14.7932 29.7626 14.8364 29.5596 14.9205C29.3566 15.0046 29.1721 15.1279 29.0167 15.2833C28.8613 15.4387 28.738 15.6232 28.6539 15.8262C28.5698 16.0293 28.5265 16.2469 28.5265 16.4666C28.5265 16.6864 28.5698 16.904 28.6539 17.1071C28.738 17.3101 28.8613 17.4946 29.0167 17.65C29.6427 18.2722 29.9963 19.1173 30 20C30.0004 20.4856 29.8947 20.9654 29.6903 21.4058C29.4859 21.8463 29.1878 22.2368 28.8167 22.55C28.6479 22.6899 28.5084 22.8617 28.4062 23.0556C28.3039 23.2495 28.2409 23.4617 28.2208 23.68C28.2007 23.8983 28.2238 24.1184 28.2889 24.3278C28.354 24.5371 28.4597 24.7316 28.6 24.9C28.7411 25.0675 28.9138 25.2056 29.1084 25.3064C29.3029 25.4071 29.5153 25.4685 29.7336 25.4871C29.9518 25.5057 30.1716 25.481 30.3803 25.4146C30.5891 25.3482 30.7826 25.2413 30.95 25.1C31.6952 24.4752 32.2947 23.6949 32.7064 22.8139C33.1181 21.9329 33.3321 20.9724 33.3334 20C33.3239 18.2335 32.6241 16.5407 31.3834 15.2833V15.2833ZM24.05 6.83331C23.7794 6.71621 23.4825 6.67303 23.1897 6.70816C22.8969 6.7433 22.6186 6.8555 22.3834 7.03331L14.4167 13.3333H8.33335C7.89133 13.3333 7.4674 13.5089 7.15484 13.8215C6.84228 14.134 6.66669 14.5579 6.66669 15V25C6.66669 25.442 6.84228 25.8659 7.15484 26.1785C7.4674 26.491 7.89133 26.6666 8.33335 26.6666H14.4167L22.3 32.9666C22.5933 33.2019 22.9574 33.3311 23.3334 33.3333C23.5823 33.3374 23.8284 33.2802 24.05 33.1666C24.3336 33.0316 24.5733 32.8191 24.7414 32.5537C24.9095 32.2883 24.9991 31.9808 25 31.6666V8.33331C24.9991 8.01916 24.9095 7.71167 24.7414 7.44627C24.5733 7.18087 24.3336 6.96839 24.05 6.83331V6.83331ZM21.6667 28.2L16.0334 23.7C15.7401 23.4647 15.376 23.3355 15 23.3333H10V16.6666H15C15.376 16.6645 15.7401 16.5352 16.0334 16.3L21.6667 11.8V28.2Z" fill="#FEF5EF"/>
</svg>
