<svg width="40" height="40" viewBox="0 0 40 40" fill="none" xmlns="http://www.w3.org/2000/svg">
<path d="M20.7166 6.83331C20.446 6.71621 20.1491 6.67303 19.8563 6.70816C19.5635 6.7433 19.2853 6.8555 19.05 7.03331L11.0833 13.3333H4.99998C4.55795 13.3333 4.13403 13.5089 3.82147 13.8215C3.50891 14.134 3.33331 14.5579 3.33331 15V25C3.33331 25.442 3.50891 25.8659 3.82147 26.1785C4.13403 26.491 4.55795 26.6666 4.99998 26.6666H11.0833L18.9666 32.9666C19.2599 33.2019 19.624 33.3311 20 33.3333C20.2489 33.3374 20.4951 33.2802 20.7166 33.1666C21.0003 33.0316 21.2399 32.8191 21.408 32.5537C21.5761 32.2883 21.6658 31.9808 21.6666 31.6666V8.33331C21.6658 8.01916 21.5761 7.71167 21.408 7.44627C21.2399 7.18087 21.0003 6.96839 20.7166 6.83331V6.83331ZM18.3333 28.2L12.7 23.7C12.4067 23.4647 12.0426 23.3355 11.6666 23.3333H6.66665V16.6666H11.6666C12.0426 16.6645 12.4067 16.5352 12.7 16.3L18.3333 11.8V28.2ZM25.2333 6.81664C25.0144 6.786 24.7917 6.79877 24.5777 6.85421C24.3638 6.90966 24.1629 7.00671 23.9865 7.1398C23.81 7.2729 23.6615 7.43944 23.5495 7.62993C23.4374 7.82041 23.364 8.0311 23.3333 8.24997C23.3027 8.46884 23.3154 8.6916 23.3709 8.90554C23.4263 9.11947 23.5234 9.32039 23.6565 9.49683C23.9253 9.85314 24.3246 10.0881 24.7666 10.15C27.127 10.5137 29.2792 11.7102 30.8341 13.523C32.3889 15.3357 33.2436 17.6451 33.2436 20.0333C33.2436 22.4215 32.3889 24.7309 30.8341 26.5437C29.2792 28.3564 27.127 29.5529 24.7666 29.9166C24.3246 29.9476 23.913 30.1529 23.6223 30.4873C23.3316 30.8217 23.1857 31.2579 23.2166 31.7C23.2476 32.142 23.4529 32.5536 23.7873 32.8443C24.1217 33.135 24.558 33.2809 25 33.25H25.2333C28.388 32.7727 31.267 31.18 33.3476 28.7611C35.4281 26.3421 36.5723 23.2573 36.5723 20.0666C36.5723 16.876 35.4281 13.7912 33.3476 11.3722C31.267 8.95324 28.388 7.36055 25.2333 6.88331V6.81664ZM24.4666 23.1166C24.0246 23.1874 23.6288 23.4308 23.3662 23.7934C23.1037 24.1559 22.9959 24.6079 23.0666 25.05C23.1374 25.492 23.3808 25.8878 23.7434 26.1504C24.1059 26.4129 24.558 26.5207 25 26.45C25.1808 26.4479 25.3605 26.4199 25.5333 26.3666C26.8317 25.9062 27.9555 25.0549 28.7504 23.9298C29.5452 22.8046 29.9719 21.4609 29.9719 20.0833C29.9719 18.7057 29.5452 17.362 28.7504 16.2368C27.9555 15.1117 26.8317 14.2604 25.5333 13.8C25.1134 13.6585 24.6545 13.6897 24.2575 13.8866C23.8606 14.0835 23.5581 14.43 23.4166 14.85C23.2752 15.2699 23.3064 15.7288 23.5033 16.1258C23.7002 16.5227 24.0467 16.8252 24.4666 16.9666C25.0991 17.2065 25.6436 17.6331 26.0278 18.1898C26.412 18.7465 26.6178 19.4069 26.6178 20.0833C26.6178 20.7597 26.412 21.4201 26.0278 21.9768C25.6436 22.5335 25.0991 22.9601 24.4666 23.2V23.1166Z" fill="#FEF5EF"/>
</svg>
