<svg width="40" height="40" viewBox="0 0 40 40" fill="none" xmlns="http://www.w3.org/2000/svg">
<path d="M28.2166 6.83331C27.946 6.71621 27.6491 6.67303 27.3563 6.70816C27.0635 6.7433 26.7853 6.8555 26.55 7.03331L18.5833 13.3333H12.5C12.058 13.3333 11.634 13.5089 11.3215 13.8215C11.0089 14.134 10.8333 14.5579 10.8333 15V25C10.8333 25.442 11.0089 25.8659 11.3215 26.1785C11.634 26.491 12.058 26.6666 12.5 26.6666H18.5833L26.4666 32.9666C26.7599 33.2019 27.124 33.3311 27.5 33.3333C27.7489 33.3374 27.9951 33.2802 28.2166 33.1666C28.5003 33.0316 28.7399 32.8191 28.908 32.5537C29.0761 32.2883 29.1658 31.9808 29.1666 31.6666V8.33331C29.1658 8.01916 29.0761 7.71167 28.908 7.44627C28.7399 7.18087 28.5003 6.96839 28.2166 6.83331V6.83331ZM25.8333 28.2L20.2 23.7C19.9067 23.4647 19.5426 23.3355 19.1666 23.3333H14.1666V16.6666H19.1666C19.5426 16.6645 19.9067 16.5352 20.2 16.3L25.8333 11.8V28.2Z" fill="#FEF5EF"/>
</svg>
