<svg width="517" height="508" viewBox="0 0 517 508" fill="none" xmlns="http://www.w3.org/2000/svg">
<mask id="mask0_6302_113" style="mask-type:alpha" maskUnits="userSpaceOnUse" x="18" y="18" width="481" height="472">
<path d="M203.609 34.9007L28.9732 245.264C12.9717 264.539 15.8605 292.847 35.4254 308.493L248.952 479.246C268.517 494.891 297.349 491.949 313.351 472.674L487.987 262.311C503.988 243.036 501.099 214.728 481.535 199.082L268.008 28.3291C248.443 12.6835 219.611 15.6257 203.609 34.9007Z" fill="#E9819F"/>
</mask>
<g mask="url(#mask0_6302_113)">
<path d="M203.609 34.9007L28.9732 245.264C12.9717 264.539 15.8605 292.847 35.4254 308.493L248.952 479.246C268.517 494.891 297.349 491.949 313.351 472.674L487.987 262.311C503.988 243.036 501.099 214.728 481.535 199.082L268.008 28.3291C248.443 12.6835 219.611 15.6257 203.609 34.9007Z" fill="#FF94B4"/>
<path d="M177.609 34.9007L2.97316 245.264C-13.0283 264.539 -10.1395 292.847 9.42539 308.493L222.952 479.246C242.517 494.891 271.349 491.949 287.351 472.674L461.987 262.311C477.988 243.036 475.099 214.728 455.535 199.082L242.008 28.3291C222.443 12.6835 193.611 15.6257 177.609 34.9007Z" fill="#FFB4CA"/>
<path d="M203.609 34.9007L28.9732 245.264C12.9717 264.539 15.8605 292.847 35.4254 308.493L248.952 479.246C268.517 494.891 297.349 491.949 313.351 472.674L487.987 262.311C503.988 243.036 501.099 214.728 481.535 199.082L268.008 28.3291C248.443 12.6835 219.611 15.6257 203.609 34.9007Z" fill="url(#paint0_radial_6302_113)"/>
<ellipse opacity="0.8" cx="161.564" cy="232.188" rx="11.8125" ry="13.5" transform="rotate(-90 161.564 232.188)" fill="#FFD4E1"/>
<ellipse opacity="0.8" cx="280.564" cy="232.188" rx="11.8125" ry="13.5" transform="rotate(-90 280.564 232.188)" fill="#FFD4E1"/>
<ellipse cx="176.812" cy="219.5" rx="11.8125" ry="13.5" fill="#FF94B4"/>
<ellipse cx="266.812" cy="219.5" rx="11.8125" ry="13.5" fill="#FF94B4"/>
<path d="M191.748 257.498C191.133 250.868 197.354 245.754 203.918 246.872C215.522 248.849 224.736 248.109 235.357 244.208C241.69 241.882 248.907 245.747 249.53 252.465L249.64 253.646C249.859 256.007 249.193 258.386 247.709 260.235C231.459 280.491 219.202 281.68 195.691 265.172C193.476 263.617 192.086 261.134 191.836 258.441L191.748 257.498Z" fill="#FF94B4"/>
</g>
<defs>
<radialGradient id="paint0_radial_6302_113" cx="0" cy="0" r="1" gradientUnits="userSpaceOnUse" gradientTransform="translate(517 234.5) rotate(172.889) scale(521.008 520.921)">
<stop stop-color="#FF94B4"/>
<stop offset="1" stop-color="#FFF0F4" stop-opacity="0"/>
</radialGradient>
</defs>
</svg>
