<svg width="553" height="557" viewBox="0 0 553 557" fill="none" xmlns="http://www.w3.org/2000/svg">
<rect x="93" y="84" width="381" height="391" rx="23.3947" fill="white"/>
<mask id="path-2-outside-1_18_23" maskUnits="userSpaceOnUse" x="51" y="44" width="466" height="469" fill="black">
<rect fill="white" x="51" y="44" width="466" height="469"/>
<path fill-rule="evenodd" clip-rule="evenodd" d="M84 49C68.536 49 56 61.536 56 77V480C56 495.464 68.536 508 84 508H484C499.464 508 512 495.464 512 480V77C512 61.536 499.464 49 484 49H84ZM116.395 84C103.474 84 93 94.4742 93 107.395V451.605C93 464.526 103.474 475 116.395 475H450.605C463.526 475 474 464.526 474 451.605V107.395C474 94.4742 463.526 84 450.605 84H116.395Z"/>
</mask>
<path fill-rule="evenodd" clip-rule="evenodd" d="M84 49C68.536 49 56 61.536 56 77V480C56 495.464 68.536 508 84 508H484C499.464 508 512 495.464 512 480V77C512 61.536 499.464 49 484 49H84ZM116.395 84C103.474 84 93 94.4742 93 107.395V451.605C93 464.526 103.474 475 116.395 475H450.605C463.526 475 474 464.526 474 451.605V107.395C474 94.4742 463.526 84 450.605 84H116.395Z" fill="#CBEDF6"/>
<path d="M61 77C61 64.2975 71.2975 54 84 54V44C65.7746 44 51 58.7746 51 77H61ZM61 480V77H51V480H61ZM84 503C71.2975 503 61 492.703 61 480H51C51 498.225 65.7746 513 84 513V503ZM484 503H84V513H484V503ZM507 480C507 492.703 496.703 503 484 503V513C502.225 513 517 498.225 517 480H507ZM507 77V480H517V77H507ZM484 54C496.703 54 507 64.2975 507 77H517C517 58.7746 502.225 44 484 44V54ZM84 54H484V44H84V54ZM98 107.395C98 97.2356 106.236 89 116.395 89V79C100.713 79 88 91.7128 88 107.395H98ZM98 451.605V107.395H88V451.605H98ZM116.395 470C106.236 470 98 461.764 98 451.605H88C88 467.287 100.713 480 116.395 480V470ZM450.605 470H116.395V480H450.605V470ZM469 451.605C469 461.764 460.764 470 450.605 470V480C466.287 480 479 467.287 479 451.605H469ZM469 107.395V451.605H479V107.395H469ZM450.605 89C460.764 89 469 97.2356 469 107.395H479C479 91.7128 466.287 79 450.605 79V89ZM116.395 89H450.605V79H116.395V89Z" fill="#2FB8DA" mask="url(#path-2-outside-1_18_23)"/>
<mask id="mask0_18_23" style="mask-type:alpha" maskUnits="userSpaceOnUse" x="18" y="18" width="481" height="472">
<path d="M203.609 34.9005L28.9732 245.263C12.9717 264.538 15.8605 292.847 35.4254 308.493L248.952 479.246C268.517 494.891 297.349 491.949 313.351 472.674L487.987 262.311C503.988 243.036 501.099 214.727 481.535 199.082L268.008 28.3289C248.443 12.6833 219.611 15.6255 203.609 34.9005Z" fill="#E9819F"/>
</mask>
<g mask="url(#mask0_18_23)">
<path d="M203.609 34.9005L28.9732 245.263C12.9717 264.538 15.8605 292.847 35.4254 308.493L248.952 479.246C268.517 494.891 297.349 491.949 313.351 472.674L487.987 262.311C503.988 243.036 501.099 214.727 481.535 199.082L268.008 28.3289C248.443 12.6833 219.611 15.6255 203.609 34.9005Z" fill="#25AED0"/>
<path d="M177.609 34.9005L2.97316 245.263C-13.0283 264.538 -10.1395 292.847 9.42539 308.493L222.952 479.246C242.517 494.891 271.349 491.949 287.351 472.674L461.987 262.311C477.988 243.036 475.099 214.727 455.535 199.082L242.008 28.3289C222.443 12.6833 193.611 15.6255 177.609 34.9005Z" fill="#2FB8DA"/>
<path d="M203.609 34.9007L28.9732 245.264C12.9717 264.539 15.8605 292.847 35.4254 308.493L248.952 479.246C268.517 494.891 297.349 491.949 313.351 472.674L487.987 262.311C503.988 243.036 501.099 214.728 481.535 199.082L268.008 28.3291C248.443 12.6835 219.611 15.6257 203.609 34.9007Z" fill="url(#paint0_radial_18_23)"/>
<ellipse opacity="0.8" cx="161.564" cy="232.188" rx="11.8125" ry="13.5" transform="rotate(-90 161.564 232.188)" fill="#B2E0EC"/>
<ellipse opacity="0.8" cx="280.564" cy="232.188" rx="11.8125" ry="13.5" transform="rotate(-90 280.564 232.188)" fill="#B2E0EC"/>
<ellipse cx="176.812" cy="219.5" rx="11.8125" ry="13.5" fill="#1398B9"/>
<ellipse cx="266.812" cy="219.5" rx="11.8125" ry="13.5" fill="#1398B9"/>
<path d="M191.748 257.498C191.133 250.868 197.354 245.754 203.918 246.872C215.522 248.849 224.736 248.109 235.357 244.208C241.69 241.882 248.907 245.747 249.53 252.465L249.64 253.646C249.859 256.007 249.193 258.386 247.709 260.235C231.459 280.491 219.202 281.68 195.691 265.172C193.476 263.617 192.086 261.134 191.836 258.441L191.748 257.498Z" fill="#1398B9"/>
</g>
<mask id="path-13-outside-2_18_23" maskUnits="userSpaceOnUse" x="469" y="121" width="48" height="194" fill="black">
<rect fill="white" x="469" y="121" width="48" height="194"/>
<path d="M474 121H512V315H474V121Z"/>
</mask>
<path d="M474 121H512V315H474V121Z" fill="#CBEDF6"/>
<path d="M507 121V315H517V121H507ZM479 315V121H469V315H479Z" fill="#2FB8DA" mask="url(#path-13-outside-2_18_23)"/>
<defs>
<radialGradient id="paint0_radial_18_23" cx="0" cy="0" r="1" gradientUnits="userSpaceOnUse" gradientTransform="translate(517 234.5) rotate(172.889) scale(521.008 520.921)">
<stop stop-color="#25AED0"/>
<stop offset="1" stop-color="#FFF0F4" stop-opacity="0"/>
</radialGradient>
</defs>
</svg>
