<svg width="518" height="508" viewBox="0 0 518 508" fill="none" xmlns="http://www.w3.org/2000/svg">
<mask id="mask0_6306_83" style="mask-type:alpha" maskUnits="userSpaceOnUse" x="18" y="18" width="481" height="472">
<path d="M203.673 34.9007L29.0371 245.264C13.0357 264.539 15.9244 292.847 35.4894 308.493L249.016 479.246C268.581 494.891 297.413 491.949 313.415 472.674L488.051 262.311C504.052 243.036 501.163 214.728 481.599 199.082L268.072 28.3291C248.507 12.6835 219.675 15.6257 203.673 34.9007Z" fill="#E9819F"/>
</mask>
<g mask="url(#mask0_6306_83)">
<path d="M203.673 34.9007L29.0371 245.264C13.0357 264.539 15.9244 292.847 35.4894 308.493L249.016 479.246C268.581 494.891 297.413 491.949 313.415 472.674L488.051 262.311C504.052 243.036 501.163 214.728 481.599 199.082L268.072 28.3291C248.507 12.6835 219.675 15.6257 203.673 34.9007Z" fill="#F9A757"/>
<path d="M177.673 34.9007L3.03712 245.264C-12.9643 264.539 -10.0756 292.847 9.48935 308.493L223.016 479.246C242.581 494.891 271.413 491.949 287.415 472.674L462.051 262.311C478.052 243.036 475.163 214.728 455.599 199.082L242.072 28.3291C222.507 12.6835 193.675 15.6257 177.673 34.9007Z" fill="#FFBF7E"/>
<path d="M203.673 34.9007L29.0371 245.264C13.0357 264.539 15.9244 292.847 35.4894 308.493L249.016 479.246C268.581 494.891 297.413 491.949 313.415 472.674L488.051 262.311C504.052 243.036 501.163 214.728 481.599 199.082L268.072 28.3291C248.507 12.6835 219.675 15.6257 203.673 34.9007Z" fill="url(#paint0_radial_6306_83)"/>
<ellipse opacity="0.8" cx="161.628" cy="232.188" rx="11.8125" ry="13.5" transform="rotate(-90 161.628 232.188)" fill="#FFF0F4"/>
<ellipse opacity="0.8" cx="280.628" cy="232.188" rx="11.8125" ry="13.5" transform="rotate(-90 280.628 232.188)" fill="#FFF0F4"/>
<ellipse cx="176.876" cy="219.5" rx="11.8125" ry="13.5" fill="#F9A757"/>
<ellipse cx="266.876" cy="219.5" rx="11.8125" ry="13.5" fill="#F9A757"/>
<path d="M191.812 257.498C191.197 250.868 197.418 245.754 203.982 246.872C215.586 248.849 224.8 248.109 235.421 244.208C241.754 241.882 248.971 245.747 249.594 252.465L249.704 253.646C249.923 256.007 249.257 258.386 247.773 260.235C231.523 280.491 219.266 281.68 195.755 265.172C193.54 263.617 192.15 261.134 191.9 258.441L191.812 257.498Z" fill="#F9A757"/>
</g>
<defs>
<radialGradient id="paint0_radial_6306_83" cx="0" cy="0" r="1" gradientUnits="userSpaceOnUse" gradientTransform="translate(517 232.5) rotate(172.67) scale(521.196 521.108)">
<stop stop-color="#F9A857"/>
<stop offset="1" stop-color="#FFF0F4" stop-opacity="0"/>
<stop offset="1" stop-color="#FFBF7E"/>
</radialGradient>
</defs>
</svg>
