<svg width="1075" height="741" viewBox="0 0 1075 741" fill="none" xmlns="http://www.w3.org/2000/svg">
<circle cx="725" cy="368" r="345" fill="#FEF5EF"/>
<g filter="url(#filter0_d_0_1)">
<path d="M724.492 374.402C719.662 376.011 714.832 373.598 713.222 369.576C711.612 364.749 714.027 359.923 718.052 358.314C722.882 356.705 727.712 359.118 729.323 363.14C730.933 367.967 729.323 372.794 724.492 374.402ZM772.794 501.502C697.926 529.657 614.203 492.653 586.026 417.841C557.85 343.03 594.882 259.37 669.75 231.215C744.618 203.06 828.342 240.063 856.518 314.875C884.694 389.687 847.663 473.347 772.794 501.502ZM680.215 257.761C619.838 280.285 590.052 347.856 612.592 408.188C635.133 468.52 702.756 498.284 763.134 475.76C823.512 453.236 853.298 385.664 830.757 325.333C807.411 265.001 739.788 234.432 680.215 257.761ZM373.497 640.667C372.692 646.298 375.912 651.929 381.547 652.734C387.183 653.538 392.818 650.321 393.623 644.69C394.428 639.059 391.208 633.428 385.573 632.623C379.937 631.819 374.302 635.036 373.497 640.667ZM397.648 553.789L405.699 555.398L451.585 327.746L443.535 326.137L397.648 553.789ZM436.29 321.31L459.636 326.137L470.101 272.24L446.755 267.414L436.29 321.31ZM668.945 228.801C592.467 257.761 554.63 343.03 583.611 419.45C612.593 495.066 697.926 532.874 773.599 503.915C850.078 474.956 888.719 389.687 859.738 314.071C830.757 237.65 744.618 199.842 668.945 228.801ZM400.063 488.631C401.673 492.653 403.283 497.48 405.699 501.502L406.504 495.871C405.698 492.653 404.088 490.24 403.283 487.022C336.465 311.657 425.019 114.573 600.517 47.8056C776.015 -18.1574 972.443 70.3295 1039.26 245.694C1106.08 421.059 1017.53 618.144 842.027 684.911C676.995 747.656 491.837 672.844 415.359 516.786L414.554 521.612C493.447 676.062 677.8 750.069 843.638 687.324C1020.75 619.752 1110.1 421.059 1042.48 244.085C974.858 67.1118 776.015 -22.1795 598.907 45.3923C422.604 112.964 333.245 311.657 400.063 488.631ZM376.717 680.084C356.591 676.062 343.711 655.952 347.736 635.841C350.956 619.752 363.837 608.49 378.327 606.077L388.793 551.376L395.233 552.985L403.283 511.155C400.063 503.915 396.843 497.48 394.428 490.24C326 310.048 416.164 108.138 596.492 39.7613C777.625 -28.6149 978.883 62.2852 1048.12 242.477C1116.54 422.668 1026.38 623.775 846.053 692.955C679.41 756.505 495.057 684.106 413.749 531.266L408.919 556.203L415.359 557.812L404.088 612.513C416.969 620.557 424.214 635.841 420.994 651.929C416.164 671.236 396.843 684.106 376.717 680.084ZM464.466 269.023C491.032 198.233 547.385 138.706 623.863 109.746L623.058 108.942C546.58 137.901 490.227 198.233 462.856 269.023H464.466ZM955.537 366.358C955.537 460.476 898.38 548.963 804.996 584.358L805.801 585.162C898.38 549.767 956.342 461.28 956.342 366.358C956.342 338.203 951.512 310.048 941.047 282.698C905.625 189.384 816.266 131.466 721.272 131.466C693.096 131.466 664.92 136.292 637.549 146.75C544.165 182.949 486.202 271.436 486.202 366.358C486.202 394.513 491.032 422.668 501.498 450.019L502.303 449.214C492.642 421.864 487.812 393.709 487.812 366.358C487.812 272.24 544.97 183.754 638.354 148.359C665.725 137.901 693.901 133.075 721.272 133.075C815.461 133.075 904.015 190.189 939.437 283.502C949.902 310.853 955.537 339.008 955.537 366.358ZM650.429 179.731C570.731 210.3 521.623 285.916 521.623 366.358C521.623 389.687 525.649 413.819 534.504 437.148C565.095 516.786 640.769 565.856 721.272 565.856C744.618 565.856 768.769 561.834 792.115 552.985C871.814 522.417 920.921 446.801 920.921 366.358C920.921 343.03 916.896 318.897 908.04 295.569L907.235 296.373C916.091 319.702 920.116 343.834 920.116 367.163C920.116 446.801 871.009 522.417 792.115 552.985C768.769 561.834 744.618 565.856 721.272 565.856C641.574 565.856 565.9 516.786 535.309 437.952C526.454 414.624 522.429 390.491 522.429 367.163C522.429 287.524 571.536 211.908 650.429 181.34V179.731ZM420.994 424.277C416.969 404.971 415.359 385.664 415.359 366.358C415.359 340.617 418.579 315.679 425.019 291.547L438.705 293.96L441.12 283.502L428.239 281.089C454.001 191.798 520.013 116.182 613.398 80.787C648.819 67.1118 685.046 60.6764 721.272 60.6764C844.443 60.6764 960.368 135.488 1007.06 257.761C1020.75 293.155 1027.19 330.159 1027.19 366.358C1027.19 489.435 952.317 605.273 829.952 651.929L830.757 652.734C953.122 606.077 1028.8 490.24 1028.8 366.358C1028.8 330.159 1022.36 293.155 1008.67 256.956C961.978 134.684 845.248 59.872 721.272 59.872C685.046 59.872 648.014 66.3074 611.787 79.9826C518.403 115.377 452.391 191.798 425.824 281.089L409.724 277.871L407.309 288.329L423.409 291.547C416.969 315.679 413.749 341.421 413.749 366.358C413.749 386.469 416.164 407.384 420.189 427.495L420.994 424.277ZM464.466 464.498C452.39 432.321 446.755 399.34 446.755 366.358C446.755 366.358 446.755 366.358 446.755 365.554L445.95 371.185C446.755 401.753 452.391 433.126 463.661 463.694C505.523 574.705 610.177 642.276 721.272 642.276C754.279 642.276 787.285 636.645 819.486 623.775C929.776 582.749 997.399 477.369 997.399 366.358C997.399 333.377 991.764 300.395 978.883 268.218L978.078 269.023C990.154 301.2 995.789 334.181 995.789 367.163C995.789 478.173 928.166 581.944 818.681 623.775C786.48 635.841 753.474 641.472 720.467 641.472C610.982 641.472 506.328 573.9 464.466 464.498ZM428.239 456.454C429.85 462.889 432.265 469.325 434.68 475.76L435.485 474.956C433.07 467.716 430.655 460.476 428.239 454.041V456.454Z" fill="#1E2948"/>
</g>
<g filter="url(#filter1_d_0_1)">
<rect width="672" height="733" transform="translate(4)" fill="#D62246"/>
<path d="M336.4 352.3H346.8V361.8H336.4V387.4C336.4 389.8 336.8 391.4 337.6 392.2C338.4 393 340 393.4 342.4 393.4C343.2 393.4 343.967 393.367 344.7 393.3C345.433 393.233 346.133 393.133 346.8 393V404C345.6 404.2 344.267 404.333 342.8 404.4C341.333 404.467 339.9 404.5 338.5 404.5C336.3 404.5 334.2 404.333 332.2 404C330.267 403.733 328.533 403.167 327 402.3C325.533 401.433 324.367 400.2 323.5 398.6C322.633 397 322.2 394.9 322.2 392.3V361.8H313.6V352.3H322.2V336.8H336.4V352.3ZM388.356 372.6C387.69 369 386.49 366.267 384.756 364.4C383.09 362.533 380.523 361.6 377.056 361.6C374.79 361.6 372.89 362 371.356 362.8C369.89 363.533 368.69 364.467 367.756 365.6C366.89 366.733 366.256 367.933 365.856 369.2C365.523 370.467 365.323 371.6 365.256 372.6H388.356ZM365.256 381.6C365.456 386.2 366.623 389.533 368.756 391.6C370.89 393.667 373.956 394.7 377.956 394.7C380.823 394.7 383.29 394 385.356 392.6C387.423 391.133 388.69 389.6 389.156 388H401.656C399.656 394.2 396.59 398.633 392.456 401.3C388.323 403.967 383.323 405.3 377.456 405.3C373.39 405.3 369.723 404.667 366.456 403.4C363.19 402.067 360.423 400.2 358.156 397.8C355.89 395.4 354.123 392.533 352.856 389.2C351.656 385.867 351.056 382.2 351.056 378.2C351.056 374.333 351.69 370.733 352.956 367.4C354.223 364.067 356.023 361.2 358.356 358.8C360.69 356.333 363.456 354.4 366.656 353C369.923 351.6 373.523 350.9 377.456 350.9C381.856 350.9 385.69 351.767 388.956 353.5C392.223 355.167 394.89 357.433 396.956 360.3C399.09 363.167 400.623 366.433 401.556 370.1C402.49 373.767 402.823 377.6 402.556 381.6H365.256ZM411.378 352.3H424.778V359.3H424.978C426.845 356.633 429.078 354.567 431.678 353.1C434.345 351.633 437.378 350.9 440.778 350.9C444.045 350.9 447.011 351.533 449.678 352.8C452.411 354.067 454.478 356.3 455.878 359.5C457.411 357.233 459.478 355.233 462.078 353.5C464.745 351.767 467.878 350.9 471.478 350.9C474.211 350.9 476.745 351.233 479.078 351.9C481.411 352.567 483.411 353.633 485.078 355.1C486.745 356.567 488.045 358.5 488.978 360.9C489.911 363.233 490.378 366.067 490.378 369.4V404H476.178V374.7C476.178 372.967 476.111 371.333 475.978 369.8C475.845 368.267 475.478 366.933 474.878 365.8C474.278 364.667 473.378 363.767 472.178 363.1C471.045 362.433 469.478 362.1 467.478 362.1C465.478 362.1 463.845 362.5 462.578 363.3C461.378 364.033 460.411 365.033 459.678 366.3C459.011 367.5 458.545 368.9 458.278 370.5C458.078 372.033 457.978 373.6 457.978 375.2V404H443.778V375C443.778 373.467 443.745 371.967 443.678 370.5C443.611 368.967 443.311 367.567 442.778 366.3C442.311 365.033 441.478 364.033 440.278 363.3C439.145 362.5 437.445 362.1 435.178 362.1C434.511 362.1 433.611 362.267 432.478 362.6C431.411 362.867 430.345 363.433 429.278 364.3C428.278 365.1 427.411 366.3 426.678 367.9C425.945 369.433 425.578 371.467 425.578 374V404H411.378V352.3ZM527.703 394.7C530.036 394.7 531.97 394.233 533.503 393.3C535.103 392.367 536.37 391.167 537.303 389.7C538.303 388.167 539.003 386.4 539.403 384.4C539.803 382.4 540.003 380.367 540.003 378.3C540.003 376.233 539.77 374.2 539.303 372.2C538.903 370.2 538.203 368.433 537.203 366.9C536.203 365.3 534.903 364.033 533.303 363.1C531.77 362.1 529.87 361.6 527.603 361.6C525.27 361.6 523.303 362.1 521.703 363.1C520.17 364.033 518.903 365.267 517.903 366.8C516.97 368.333 516.303 370.1 515.903 372.1C515.503 374.1 515.303 376.167 515.303 378.3C515.303 380.367 515.503 382.4 515.903 384.4C516.37 386.4 517.07 388.167 518.003 389.7C519.003 391.167 520.303 392.367 521.903 393.3C523.503 394.233 525.436 394.7 527.703 394.7ZM501.603 352.3H515.103V358.9H515.303C517.036 356.1 519.236 354.067 521.903 352.8C524.57 351.533 527.503 350.9 530.703 350.9C534.77 350.9 538.27 351.667 541.203 353.2C544.136 354.733 546.57 356.767 548.503 359.3C550.436 361.833 551.87 364.8 552.803 368.2C553.736 371.533 554.203 375.033 554.203 378.7C554.203 382.167 553.736 385.5 552.803 388.7C551.87 391.9 550.436 394.733 548.503 397.2C546.636 399.667 544.27 401.633 541.403 403.1C538.603 404.567 535.303 405.3 531.503 405.3C528.303 405.3 525.336 404.667 522.603 403.4C519.936 402.067 517.736 400.133 516.003 397.6H515.803V422.1H501.603V352.3ZM575.336 378.2C575.336 380.267 575.536 382.3 575.936 384.3C576.336 386.233 577.003 388 577.936 389.6C578.936 391.133 580.236 392.367 581.836 393.3C583.436 394.233 585.436 394.7 587.836 394.7C590.236 394.7 592.236 394.233 593.836 393.3C595.503 392.367 596.803 391.133 597.736 389.6C598.736 388 599.436 386.233 599.836 384.3C600.236 382.3 600.436 380.267 600.436 378.2C600.436 376.133 600.236 374.1 599.836 372.1C599.436 370.1 598.736 368.333 597.736 366.8C596.803 365.267 595.503 364.033 593.836 363.1C592.236 362.1 590.236 361.6 587.836 361.6C585.436 361.6 583.436 362.1 581.836 363.1C580.236 364.033 578.936 365.267 577.936 366.8C577.003 368.333 576.336 370.1 575.936 372.1C575.536 374.1 575.336 376.133 575.336 378.2ZM561.136 378.2C561.136 374.067 561.769 370.333 563.036 367C564.303 363.6 566.103 360.733 568.436 358.4C570.769 356 573.569 354.167 576.836 352.9C580.103 351.567 583.769 350.9 587.836 350.9C591.903 350.9 595.569 351.567 598.836 352.9C602.169 354.167 605.003 356 607.336 358.4C609.669 360.733 611.469 363.6 612.736 367C614.003 370.333 614.636 374.067 614.636 378.2C614.636 382.333 614.003 386.067 612.736 389.4C611.469 392.733 609.669 395.6 607.336 398C605.003 400.333 602.169 402.133 598.836 403.4C595.569 404.667 591.903 405.3 587.836 405.3C583.769 405.3 580.103 404.667 576.836 403.4C573.569 402.133 570.769 400.333 568.436 398C566.103 395.6 564.303 392.733 563.036 389.4C561.769 386.067 561.136 382.333 561.136 378.2ZM624.469 388.6H640.169V404H624.469V388.6Z" fill="white"/>
</g>
<defs>
<filter id="filter0_d_0_1" x="343" y="17" width="732" height="707" filterUnits="userSpaceOnUse" color-interpolation-filters="sRGB">
<feFlood flood-opacity="0" result="BackgroundImageFix"/>
<feColorMatrix in="SourceAlpha" type="matrix" values="0 0 0 0 0 0 0 0 0 0 0 0 0 0 0 0 0 0 127 0" result="hardAlpha"/>
<feOffset dy="4"/>
<feGaussianBlur stdDeviation="2"/>
<feComposite in2="hardAlpha" operator="out"/>
<feColorMatrix type="matrix" values="0 0 0 0 0 0 0 0 0 0 0 0 0 0 0 0 0 0 0.25 0"/>
<feBlend mode="normal" in2="BackgroundImageFix" result="effect1_dropShadow_0_1"/>
<feBlend mode="normal" in="SourceGraphic" in2="effect1_dropShadow_0_1" result="shape"/>
</filter>
<filter id="filter1_d_0_1" x="0" y="0" width="680" height="741" filterUnits="userSpaceOnUse" color-interpolation-filters="sRGB">
<feFlood flood-opacity="0" result="BackgroundImageFix"/>
<feColorMatrix in="SourceAlpha" type="matrix" values="0 0 0 0 0 0 0 0 0 0 0 0 0 0 0 0 0 0 127 0" result="hardAlpha"/>
<feOffset dy="4"/>
<feGaussianBlur stdDeviation="2"/>
<feComposite in2="hardAlpha" operator="out"/>
<feColorMatrix type="matrix" values="0 0 0 0 0 0 0 0 0 0 0 0 0 0 0 0 0 0 0.25 0"/>
<feBlend mode="normal" in2="BackgroundImageFix" result="effect1_dropShadow_0_1"/>
<feBlend mode="normal" in="SourceGraphic" in2="effect1_dropShadow_0_1" result="shape"/>
</filter>
</defs>
</svg>
